<svg width="123" height="32" viewBox="0 0 123 32" fill="none" xmlns="http://www.w3.org/2000/svg">
<path d="M24.8949 15.9994C24.8949 12.7118 23.9033 9.65568 22.2014 7.11332C19.3315 2.8235 14.441 0 8.89315 0H0V7.11332H8.89315C13.8024 7.11332 17.783 11.0922 17.783 15.9994C17.783 20.9067 13.8024 24.8856 8.89315 24.8856H0V31.9989H8.89315C14.441 31.9989 19.3304 29.1754 22.2014 24.8856C23.9033 22.3432 24.8949 19.2871 24.8949 15.9994Z" fill="#C3083F"/>
<path d="M44.6698 10.6755C44.6698 11.9147 44.458 13.1109 44.0632 14.22C43.1907 16.6995 41.426 18.7612 39.1517 20.0114L45.7143 32H37.6031L31.6251 21.0776L27.8784 14.2255V14.22H33.8994C34.6196 14.22 35.2902 14.0094 35.8538 13.6357C36.8233 13.0029 37.4564 11.9092 37.4564 10.6645C37.4564 8.70532 35.8649 7.11442 33.8994 7.11442H23.9959C23.986 7.09237 23.9695 7.06591 23.9584 7.04386C22.1176 3.95356 19.3503 1.47955 16.0425 0.00220378H33.9921C38.6377 0.00220378 42.5907 2.96902 44.0576 7.11442C44.4536 8.22353 44.6698 9.43628 44.6698 10.6755Z" fill="#C3083F"/>
<path d="M66.6932 4.55941C67.1828 5.44406 67.4267 6.518 67.4267 7.77938C67.4267 9.04075 67.1828 10.1016 66.6932 10.9919C66.2055 11.8821 65.4853 12.5644 64.5363 13.0367C63.5873 13.5109 62.4247 13.747 61.0504 13.747H56.6855V1.82861H61.0504C62.4247 1.82861 63.5873 2.06289 64.5363 2.52958C65.4853 2.99815 66.2055 3.67288 66.6932 4.55753V4.55941ZM65.2093 7.77938C65.2093 6.37181 64.8577 5.32597 64.1525 4.64374C63.4474 3.96151 62.368 3.6204 60.9124 3.6204H58.8822V11.9384H60.9124C62.3661 11.9384 63.4474 11.5954 64.1525 10.9075C64.8577 10.2197 65.2093 9.17757 65.2093 7.77938ZM75.6271 1.82861L81.1357 13.747H78.9012L77.6933 10.9919H71.7707L70.5628 13.747H68.3454L73.7859 1.82861H75.6271ZM72.508 9.2844H76.9844L74.7575 4.16207H74.6895L72.508 9.2844ZM92.6254 13.747H94.6197V1.82861H92.7105L88.5573 11.0949L84.406 1.82861H82.4797V13.747H84.4741V6.28559L87.8843 13.747H89.1981L92.6254 6.24811V13.747ZM97.2984 13.747H99.4969V1.82861H97.2984V13.747ZM102.14 13.747H110.238V12.0227H104.253V8.55719H109.845V6.83288H104.253V3.53606H110.238V1.82861H102.14V13.747ZM120.469 1.82861V10.2028L113.937 1.82861H112.283V13.747H114.329V5.35221L120.86 13.747H122.514V1.82861H120.469ZM65.0902 27.1798L66.8463 30.9152H64.4248L62.6516 27.043C62.4928 26.6494 62.2508 26.3889 61.9276 26.2652C61.6043 26.1415 61.2149 26.0796 60.7593 26.0796H58.8841V30.9152H56.6855V18.9968H61.937C63.2546 18.9968 64.2754 19.3061 64.9975 19.9264C65.7197 20.5468 66.0807 21.409 66.0807 22.5129C66.0807 23.2457 65.9182 23.8717 65.5949 24.389C65.2716 24.9082 64.8066 25.3055 64.2055 25.5811C64.0259 25.6635 63.8368 25.731 63.6384 25.7891C63.8255 25.851 64.0051 25.9353 64.1714 26.0459C64.5457 26.2933 64.8539 26.6719 65.0921 27.1779L65.0902 27.1798ZM63.3416 23.9936C63.7442 23.6731 63.9465 23.2026 63.9465 22.5823C63.9465 21.9619 63.7442 21.4952 63.3416 21.1784C62.9389 20.8636 62.3491 20.7042 61.5759 20.7042H58.8822V24.4734H61.5759C62.3491 24.4734 62.937 24.3122 63.3416 23.9917V23.9936ZM76.5477 26.014C76.5477 27.073 76.3077 27.8733 75.8237 28.4149C75.3398 28.9566 74.6214 29.2265 73.6668 29.2265C72.7122 29.2265 71.9371 28.9566 71.4759 28.4149C71.0146 27.8752 70.7859 27.0748 70.7859 26.014V18.9987H68.5855V26.0309C68.5855 27.699 69.0032 28.9585 69.8388 29.8094C70.6743 30.6603 71.9484 31.0858 73.6668 31.0858C75.3851 31.0858 76.5969 30.6603 77.4438 29.8094C78.2907 28.9585 78.7141 27.699 78.7141 26.0309V18.9987H76.5477V26.014ZM83.4703 18.9987H81.2718V30.9171H89.132V29.0747H83.4722V19.0006L83.4703 18.9987ZM93.0186 18.9987H90.8201V30.9171H98.6803V29.0747H93.0205V19.0006L93.0186 18.9987ZM100.368 30.9171H108.467V29.1928H102.482V25.7273H108.074V24.0029H102.482V20.7061H108.467V18.9987H100.368V30.9171Z" fill="#C3083F"/>
</svg>
