<svg width="24" height="24" viewBox="0 0 24 24" fill="none" xmlns="http://www.w3.org/2000/svg">
<path d="M6.86996 13.9517C7.5636 13.9667 8.24981 13.6818 8.90587 13.2318C9.55269 12.7951 10.1488 12.3935 10.6943 12.0268C10.5792 12.1347 10.501 12.2092 10.4721 12.2392C10.3789 12.336 10.2822 12.4301 10.1803 12.5284C10.1689 12.5394 10.1573 12.5506 10.1456 12.5619C10.0567 12.6475 9.96189 12.7389 9.87357 12.8288C9.68527 13.0204 9.44859 13.28 9.31052 13.5948C9.14994 13.9609 9.13055 14.3836 9.34955 14.803C9.54024 15.1682 9.87954 15.4666 10.2823 15.7321C10.8791 16.1253 11.3564 16.4504 11.837 16.7777L11.9026 16.8223C12.4057 17.1649 12.9176 17.5128 13.5718 17.9416C13.7308 18.0459 13.8816 18.1534 14.0417 18.2675C14.0749 18.2911 14.1084 18.3151 14.1425 18.3393C14.334 18.4753 14.5428 18.6211 14.7599 18.7486C15.1984 19.0062 15.7365 19.2296 16.3856 19.1699C17.3168 19.0842 17.841 18.226 18.0609 17.0504C18.5485 14.4439 19.5142 8.75917 19.7395 6.39135C19.7671 6.10196 19.7344 5.77121 19.7075 5.61378C19.6799 5.45234 19.5991 5.05754 19.2311 4.75893C19.0237 4.59061 18.7927 4.5113 18.6269 4.47168C18.4563 4.43093 18.2945 4.41803 18.1745 4.42014C17.7626 4.4274 17.3097 4.54404 16.5104 4.83408C15.6982 5.12882 14.4468 5.63495 12.4038 6.48472C10.9653 7.08306 8.09917 8.31765 3.81122 10.1858C3.44038 10.3339 3.11079 10.498 2.85567 10.6875C2.61747 10.8644 2.31477 11.1595 2.2597 11.5988C2.21744 11.9359 2.31508 12.2446 2.51419 12.4894C2.68941 12.7047 2.91772 12.8398 3.10303 12.9295C3.37899 13.0632 3.7492 13.1793 4.09041 13.2864C4.18473 13.3159 4.27684 13.3448 4.36413 13.3732C4.75052 13.4988 5.20889 13.6368 5.64347 13.7458C6.06065 13.8504 6.51589 13.9441 6.86996 13.9517Z" stroke="white" stroke-width="1.5"/>
</svg>
