<svg width="20" height="21" viewBox="0 0 20 21" fill="none" xmlns="http://www.w3.org/2000/svg">
<path d="M13.3332 11.2498V14.7498C13.3332 17.6665 12.1665 18.8332 9.24984 18.8332H5.74984C2.83317 18.8332 1.6665 17.6665 1.6665 14.7498V11.2498C1.6665 8.33317 2.83317 7.1665 5.74984 7.1665H9.24984C12.1665 7.1665 13.3332 8.33317 13.3332 11.2498Z" stroke="#7F7F88" stroke-linecap="round" stroke-linejoin="round"/>
<path d="M18.3332 6.24984V9.74984C18.3332 12.6665 17.1665 13.8332 14.2498 13.8332H13.3332V11.2498C13.3332 8.33317 12.1665 7.1665 9.24984 7.1665H6.6665V6.24984C6.6665 3.33317 7.83317 2.1665 10.7498 2.1665H14.2498C17.1665 2.1665 18.3332 3.33317 18.3332 6.24984Z" stroke="#7F7F88" stroke-linecap="round" stroke-linejoin="round"/>
</svg>
