<svg width="24" height="24" viewBox="0 0 24 24" fill="none" xmlns="http://www.w3.org/2000/svg">
<path fill-rule="evenodd" clip-rule="evenodd" d="M16.4692 7.39303C16.4692 9.81312 14.4714 11.786 12.0206 11.786C9.5434 11.786 7.54557 9.81312 7.54557 7.39303C7.54557 4.97292 9.5434 3 12.0206 3C14.4714 3 16.4692 4.97292 16.4692 7.39303ZM13.8587 7.39303C13.8587 6.39342 13.0329 5.57794 12.0206 5.57794C10.9818 5.57794 10.156 6.39342 10.1827 7.39303C10.1827 8.39265 11.0085 9.20807 12.0206 9.20807C13.0329 9.20807 13.8587 8.39265 13.8587 7.39303Z" fill="white"/>
<path d="M16.3893 14.3377C15.5902 14.8375 14.7111 15.1795 13.8055 15.39L16.336 17.81C16.8421 18.3099 16.8421 19.1253 16.336 19.6252C15.83 20.1249 15.0042 20.1249 14.4981 19.6252L12.0473 17.205L9.59671 19.6252C9.33032 19.8619 9.01067 19.9934 8.66438 19.9934C8.3181 19.9934 7.99844 19.8882 7.73207 19.6252C7.22594 19.1253 7.22594 18.3099 7.73207 17.81L10.2094 15.3636C9.30368 15.1531 8.42464 14.8113 7.62551 14.3114C7.01284 13.9432 6.82638 13.154 7.17266 12.549C7.57224 11.9439 8.37137 11.7861 8.98403 12.1544C10.7954 13.2855 13.1661 13.2855 14.9775 12.1544C15.5902 11.7598 16.416 11.9439 16.7889 12.549C17.1884 13.154 17.002 13.9694 16.3893 14.3377Z" fill="white"/>
</svg>
