<svg width="24" height="24" viewBox="0 0 24 24" fill="none" xmlns="http://www.w3.org/2000/svg">
<path fill-rule="evenodd" clip-rule="evenodd" d="M5.10104 7.64652C5.2963 7.45126 5.61288 7.45126 5.80814 7.64652L17.9907 19.8291C18.186 20.0244 18.186 20.3409 17.9907 20.5362C17.7955 20.7315 17.4789 20.7315 17.2836 20.5362L5.10104 8.35363C4.90577 8.15837 4.90577 7.84178 5.10104 7.64652Z" fill="#544C49"/>
<path fill-rule="evenodd" clip-rule="evenodd" d="M18.065 7.64652C17.8697 7.45126 17.5531 7.45126 17.3579 7.64652L5.1753 19.8291C4.98004 20.0244 4.98003 20.3409 5.1753 20.5362C5.37056 20.7315 5.68714 20.7315 5.8824 20.5362L18.065 8.35363C18.2602 8.15837 18.2602 7.84178 18.065 7.64652Z" fill="#544C49"/>
<path fill-rule="evenodd" clip-rule="evenodd" d="M11.6664 5.49017L4.9467 18.3331H18.3862L11.6664 5.49017ZM12.2571 4.46209C12.0077 3.98529 11.3252 3.98529 11.0757 4.46209L3.80539 18.3574C3.57314 18.8013 3.89512 19.3331 4.39608 19.3331H18.9368C19.4378 19.3331 19.7597 18.8013 19.5275 18.3574L12.2571 4.46209Z" fill="#544C49"/>
</svg>
