<svg width="24" height="24" viewBox="0 0 24 24" fill="none" xmlns="http://www.w3.org/2000/svg">
<path d="M20.1065 19.3731L19.5598 18.8265V5.17979L20.1131 4.62645C20.1762 4.58239 20.2289 4.52503 20.2675 4.45842C20.306 4.3918 20.3295 4.31755 20.3362 4.24088C20.343 4.16422 20.3329 4.087 20.3066 4.01467C20.2803 3.94234 20.2384 3.87665 20.184 3.82223C20.1296 3.7678 20.0639 3.72597 19.9916 3.69967C19.9192 3.67337 19.842 3.66324 19.7654 3.67C19.6887 3.67676 19.6144 3.70024 19.5478 3.73879C19.4812 3.77734 19.4238 3.83002 19.3798 3.89312L18.6198 4.66645H5.37978L4.62645 3.91312C4.51501 3.79818 4.36592 3.72719 4.20645 3.71312C4.13664 3.70415 4.0657 3.71087 3.99881 3.73278C3.93192 3.7547 3.87076 3.79125 3.81978 3.83979C3.72436 3.95723 3.67861 4.10733 3.69231 4.25804C3.70601 4.40875 3.77808 4.54814 3.89312 4.64645L4.71978 5.47312V18.5531L3.89312 19.3798C3.83002 19.4238 3.77734 19.4812 3.73879 19.5478C3.70024 19.6144 3.67676 19.6887 3.67 19.7654C3.66324 19.842 3.67337 19.9192 3.69967 19.9916C3.72597 20.0639 3.7678 20.1296 3.82223 20.184C3.87665 20.2384 3.94234 20.2803 4.01467 20.3066C4.087 20.3329 4.16422 20.343 4.24088 20.3362C4.31755 20.3295 4.3918 20.306 4.45842 20.2675C4.52503 20.2289 4.58239 20.1762 4.62645 20.1131L5.24645 19.4931H18.7531L19.3731 20.1131C19.4172 20.1762 19.4745 20.2289 19.5412 20.2675C19.6078 20.306 19.682 20.3295 19.7587 20.3362C19.8354 20.343 19.9126 20.3329 19.9849 20.3066C20.0572 20.2803 20.1229 20.2384 20.1773 20.184C20.2318 20.1296 20.2736 20.0639 20.2999 19.9916C20.3262 19.9192 20.3363 19.842 20.3296 19.7654C20.3228 19.6887 20.2993 19.6144 20.2608 19.5478C20.2222 19.4812 20.1696 19.4238 20.1065 19.3798V19.3731ZM18.5065 17.7798L16.1731 15.4531C16.9788 14.4934 17.4149 13.2772 17.4027 12.0241C17.3905 10.7711 16.9307 9.56364 16.1065 8.61979L18.4998 6.22645L18.5065 17.7798ZM11.2531 11.9998L8.75312 14.4998C8.22828 13.7791 7.95055 12.908 7.96137 12.0165C7.97218 11.125 8.27096 10.2609 8.81312 9.55312L11.2531 11.9998ZM9.53978 8.81312C10.245 8.23662 11.121 7.90963 12.0315 7.8831C12.9419 7.85657 13.8356 8.132 14.5731 8.66645L11.9998 11.2731L9.53978 8.81312ZM11.9998 12.7465L14.6665 15.4131C13.9194 15.9892 12.9971 16.291 12.054 16.2679C11.1109 16.2449 10.2044 15.8984 9.48645 15.2865L11.9998 12.7465ZM12.7331 12.0131L15.3331 9.40645C15.955 10.1389 16.3007 11.066 16.3105 12.0268C16.3202 12.9876 15.9933 13.9215 15.3865 14.6665L12.7331 12.0131ZM17.5065 5.77312L15.3331 7.90645C14.4129 7.18941 13.2797 6.79995 12.1131 6.79979H11.8398C10.7081 6.85511 9.62498 7.2762 8.75312 7.99979L6.49979 5.73978L17.5065 5.77312ZM5.86645 6.60645L7.99979 8.76645C7.26379 9.69494 6.86327 10.845 6.86327 12.0298C6.86327 13.2146 7.26379 14.3646 7.99979 15.2931L5.86645 17.3998V6.60645ZM6.31978 18.4131L8.66645 16.0465C9.59619 16.8604 10.7834 17.32 12.0188 17.3444C13.2542 17.3688 14.4586 16.9564 15.4198 16.1798L17.6531 18.4131H6.31978Z" fill="#544C49"/>
</svg>
