<svg width="24" height="24" viewBox="0 0 24 24" fill="none" xmlns="http://www.w3.org/2000/svg">
<path d="M10.7557 13.9255V7.50801H12.6598V10.9552V11.5049L13.2071 11.4529C14.2364 11.3552 15.2454 10.7925 16.0654 10.0239C16.8002 9.33509 17.4164 8.45064 17.7844 7.5H19.6656C19.4206 8.22868 19.0443 8.9211 18.548 9.54968C17.9145 10.3522 17.0987 11.0336 16.1493 11.5485L15.2555 12.0331L16.185 12.4451C17.2482 12.9163 18.1828 13.581 18.9293 14.3922C19.5132 15.0267 19.9716 15.7394 20.2894 16.5H18.1484C17.3301 14.5908 15.5329 13.1377 13.204 12.9311L12.6598 12.8828V13.4291V16.4993C9.7574 16.4713 7.53175 15.5723 6.00701 13.998C4.54246 12.4859 3.67259 10.297 3.51969 7.50801H5.61202C5.86178 11.927 8.14973 13.9689 10.1471 14.4136L10.7557 14.5491V13.9255Z" fill="white" stroke="white"/>
</svg>
