<svg width="24" height="24" viewBox="0 0 24 24" fill="none" xmlns="http://www.w3.org/2000/svg">
<path d="M12.0377 3C7.09761 3 3.07723 7.0014 3.07548 11.919C3.07432 13.4916 3.48774 15.0264 4.27161 16.3782L3 21L7.75142 19.7598C9.07309 20.4742 10.5427 20.8469 12.0343 20.8458H12.0377C16.9779 20.8458 20.9983 16.8438 21 11.9262C21.0012 9.5442 20.0698 7.302 18.3772 5.6166C16.6852 3.9306 14.4352 3.0006 12.0377 3ZM12.0377 19.3392H12.0348C10.6982 19.3392 9.3871 18.9816 8.24323 18.306L7.97032 18.1452L5.15187 18.8808L5.90439 16.1448L5.72729 15.8646C4.98343 14.6923 4.58745 13.3208 4.58806 11.919C4.58981 7.8312 7.932 4.5066 12.0406 4.5066C14.0299 4.5072 15.9002 5.2794 17.3071 6.6804C18.714 8.0814 19.488 9.9444 19.4868 11.9256C19.4851 16.0134 16.1435 19.3392 12.0372 19.3392H12.0377ZM16.1237 13.7862C15.8996 13.6752 14.7987 13.1358 14.5932 13.0608C14.3882 12.987 14.239 12.9486 14.0897 13.1718C13.9411 13.395 13.5114 13.8972 13.3814 14.0454C13.2501 14.1942 13.1195 14.2122 12.8954 14.1012C12.6712 13.9896 11.9495 13.7544 11.0948 12.9948C10.4288 12.4044 9.97935 11.6748 9.84871 11.451C9.71806 11.2284 9.83477 11.1078 9.94684 10.9968C10.0473 10.8978 10.171 10.737 10.2825 10.6068C10.3939 10.4766 10.4311 10.3836 10.5066 10.2348C10.5809 10.0866 10.5437 9.9558 10.4874 9.8448C10.4311 9.7326 9.984 8.6358 9.79645 8.19C9.61529 7.7556 9.43064 7.8138 9.29303 7.8066C9.16239 7.8006 9.01374 7.7988 8.86335 7.7988C8.71529 7.7988 8.472 7.8546 8.26645 8.0778C8.06148 8.301 7.48258 8.8398 7.48258 9.9366C7.48258 11.034 8.28503 12.0936 8.3971 12.2424C8.50916 12.3906 9.97645 14.6424 12.223 15.6084C12.7572 15.837 13.1741 15.9744 13.4998 16.0776C14.0363 16.2474 14.5246 16.2228 14.9102 16.1658C15.3399 16.1016 16.2352 15.627 16.421 15.1068C16.608 14.5866 16.608 14.1402 16.5523 14.0472C16.4977 13.9542 16.3479 13.8984 16.1237 13.7862Z" fill="white"/>
</svg>
